<svg xmlns="http://www.w3.org/2000/svg" viewBox="0 0 290 243"><defs><style>.cls-1{fill:#fff;}</style></defs><g id="Capa_2" data-name="Capa 2"><g id="Capa_1-2" data-name="Capa 1"><path class="cls-1" d="M290,243H0V0H290ZM94.79,146.36h6.66q45.24,0,90.47,0c5.16,0,10.34-.06,15.48-.4,12.73-.85,20.11-6.4,23.21-17.57q5.47-19.68,10.57-39.47c2.16-8.45-3.06-16.09-11.68-16.76C205.77,70.29,182,68.69,158.26,67c-24.58-1.75-49.16-3.51-73.74-5.14-2.7-.18-3.83-1.28-4.21-3.79C79.62,53.48,79,48.84,78,44.31c-2.1-9.05-7.73-15.22-16.78-17.21-5.27-1.16-10.9-1-16.37-1-7.66,0-12.64,4.53-12.66,11.18,0,6.4,4.75,11,12.13,11.22,5.32.2,10.66.06,16,.06,11.2,0,11,0,12.75,11.14,5.76,35.95,11.82,71.85,17.46,107.82.83,5.3,2.91,6.81,8.06,6.78,40-.17,80-.09,120-.09,1.16,0,2.6.38,3.43-.16a24.24,24.24,0,0,0,3.86-3.73c-1.23-1.13-2.29-2.64-3.74-3.29-1.25-.57-3-.16-4.44-.16H98.18C97,160,96,153.61,94.79,146.36Zm36.27,46.91a16.36,16.36,0,0,0-16.55-16.88,16.77,16.77,0,0,0-.22,33.54A16.35,16.35,0,0,0,131.06,193.27Zm94.08.09a16.6,16.6,0,1,0-33.2-.65c-.11,9.62,6.83,16.93,16.29,17.17A16.37,16.37,0,0,0,225.14,193.36Z"/><path d="M94.79,146.36C96,153.61,97,160,98.18,166.88H217.64c1.49,0,3.19-.41,4.44.16,1.45.65,2.51,2.16,3.74,3.29a24.24,24.24,0,0,1-3.86,3.73c-.83.54-2.27.16-3.43.16-40,0-80-.08-120,.09-5.15,0-7.23-1.48-8.06-6.78-5.64-36-11.7-71.87-17.46-107.82C71.27,48.61,71.5,48.57,60.3,48.57c-5.33,0-10.67.14-16-.06-7.38-.27-12.15-4.82-12.13-11.22,0-6.65,5-11.22,12.66-11.18,5.47,0,11.1-.17,16.37,1,9.05,2,14.68,8.16,16.78,17.21,1,4.53,1.63,9.17,2.32,13.77.38,2.51,1.51,3.61,4.21,3.79,24.58,1.63,49.16,3.39,73.74,5.14,23.75,1.68,47.51,3.28,71.24,5.13,8.62.67,13.84,8.31,11.68,16.76q-5.07,19.8-10.57,39.47c-3.1,11.17-10.48,16.72-23.21,17.57-5.14.34-10.32.39-15.48.4q-45.24,0-90.47,0Zm13.28-75.28c3.65,21.34,7.37,42.12,10.64,63,.64,4.15,2.09,5,6,5,24.17-.17,48.33-.05,72.5-.15a96.51,96.51,0,0,0,12.93-1c5.76-.8,10.73-3.27,12.46-9.28q5.94-20.59,11.31-41.36c1.16-4.43-.87-6.78-5.57-7.52-1.48-.23-3-.44-4.46-.55q-49.59-3.57-99.17-7.1C119.23,71.73,113.79,71.44,108.07,71.08Zm3.74,67.36c-3.65-21.71-7.21-43.19-10.94-64.63-.23-1.31-1.58-3.33-2.6-3.45-5.21-.65-10.47-.79-16-1.12,3,18.31,6,36,8.71,53.74,2.53,16.88,2.35,16.91,19.48,15.88A7.92,7.92,0,0,0,111.81,138.44ZM67.55,41l.7-1.72c-2.92-1.69-5.68-4.3-8.81-4.87-5-.91-10.29-.71-15.43-.44-1.4.08-2.7,2.1-4,3.23,1.42,1.26,2.79,3.56,4.26,3.63C52,41.18,59.77,41,67.55,41Z"/><path d="M131.06,193.27a16.35,16.35,0,0,1-16.77,16.66,16.77,16.77,0,0,1,.22-33.54A16.36,16.36,0,0,1,131.06,193.27ZM114,202.13a9.16,9.16,0,0,0,9.78-8.56,9.32,9.32,0,0,0-8.89-9.56,9,9,0,0,0-9.43,8.92A8.83,8.83,0,0,0,114,202.13Z"/><path d="M225.14,193.36a16.37,16.37,0,0,1-16.91,16.52c-9.46-.24-16.4-7.55-16.29-17.17a16.6,16.6,0,1,1,33.2.65Zm-16.84,8.8a9.07,9.07,0,1,0-8.92-8.93A9,9,0,0,0,208.3,202.16Z"/><path class="cls-1" d="M108.07,71.08c5.72.36,11.16.65,16.59,1q49.59,3.52,99.17,7.1c1.49.11,3,.32,4.46.55,4.7.74,6.73,3.09,5.57,7.52q-5.38,20.74-11.31,41.36c-1.73,6-6.7,8.48-12.46,9.28a96.51,96.51,0,0,1-12.93,1c-24.17.1-48.33,0-72.5.15-3.86,0-5.31-.84-6-5C115.44,113.2,111.72,92.42,108.07,71.08Z"/><path class="cls-1" d="M111.81,138.44a7.92,7.92,0,0,1-1.39.42c-17.13,1-17,1-19.48-15.88-2.67-17.75-5.73-35.43-8.71-53.74,5.57.33,10.83.47,16,1.12,1,.12,2.37,2.14,2.6,3.45C104.6,95.25,108.16,116.73,111.81,138.44Z"/><path class="cls-1" d="M67.55,41c-7.78,0-15.57.19-23.33-.17-1.47-.07-2.84-2.37-4.26-3.63C41.31,36.06,42.61,34,44,34c5.14-.27,10.41-.47,15.43.44,3.13.57,5.89,3.18,8.81,4.87Z"/><path class="cls-1" d="M114,202.13a8.83,8.83,0,0,1-8.54-9.2,9,9,0,0,1,9.43-8.92,9.32,9.32,0,0,1,8.89,9.56A9.16,9.16,0,0,1,114,202.13Z"/><path class="cls-1" d="M208.3,202.16a9,9,0,0,1-8.92-8.93,9.21,9.21,0,1,1,8.92,8.93Z"/></g></g></svg>