<svg xmlns="http://www.w3.org/2000/svg" viewBox="0 0 209.49 183.82"><g id="Capa_2" data-name="Capa 2"><g id="Capa_1-2" data-name="Capa 1"><path d="M62.61,120.25c1.2,7.26,2.26,13.62,3.4,20.52H185.46c1.5,0,3.19-.4,4.44.16,1.45.65,2.51,2.16,3.74,3.29a25.14,25.14,0,0,1-3.85,3.74c-.84.53-2.28.15-3.44.15-40,0-80-.08-120,.1-5.15,0-7.23-1.49-8.06-6.78-5.64-36-11.7-71.88-17.46-107.83-1.78-11.1-1.55-11.13-12.75-11.14-5.33,0-10.67.14-16-.06C4.76,22.13,0,17.58,0,11.19,0,4.53,5,0,12.67,0,18.13,0,23.76-.17,29,1,38.09,3,43.72,9.15,45.81,18.2c1,4.53,1.64,9.17,2.32,13.77.38,2.51,1.51,3.61,4.21,3.79,24.58,1.63,49.16,3.4,73.74,5.14,23.75,1.68,47.51,3.28,71.25,5.13,8.61.67,13.83,8.31,11.67,16.76q-5.07,19.8-10.57,39.48c-3.1,11.17-10.48,16.72-23.2,17.56-5.15.34-10.33.4-15.49.4q-45.23.06-90.47,0ZM75.89,45c3.65,21.33,7.38,42.11,10.64,63,.65,4.15,2.09,5,6,5,24.17-.17,48.33,0,72.5-.15a96.49,96.49,0,0,0,12.93-1c5.76-.81,10.73-3.28,12.47-9.29q5.94-20.6,11.3-41.35c1.16-4.44-.87-6.79-5.56-7.53-1.49-.23-3-.44-4.47-.54Q142.07,49.55,92.48,46C87.05,45.62,81.61,45.33,75.89,45Zm3.74,67.36C76,90.62,72.42,69.14,68.69,47.7c-.23-1.31-1.58-3.32-2.6-3.45-5.2-.65-10.47-.79-16-1.12,3,18.31,6,36,8.71,53.74,2.54,16.89,2.36,16.91,19.48,15.89A9,9,0,0,0,79.63,112.34ZM35.37,14.88l.7-1.71c-2.92-1.7-5.68-4.31-8.81-4.88-5-.91-10.29-.71-15.43-.44-1.4.08-2.7,2.1-4,3.23,1.42,1.27,2.79,3.56,4.27,3.63C19.81,15.08,27.59,14.88,35.37,14.88Z"/><path d="M98.88,167.16a16.35,16.35,0,0,1-16.77,16.66,16.77,16.77,0,0,1,.23-33.54A16.36,16.36,0,0,1,98.88,167.16ZM81.78,176a9.16,9.16,0,0,0,9.78-8.56,9.32,9.32,0,0,0-8.89-9.56,9,9,0,0,0-9.43,8.92A8.82,8.82,0,0,0,81.78,176Z"/><path d="M193,167.25a16.37,16.37,0,0,1-16.91,16.52c-9.46-.24-16.39-7.55-16.29-17.17a16.6,16.6,0,1,1,33.2.65Zm-16.84,8.8a9.07,9.07,0,1,0-8.92-8.92A9,9,0,0,0,176.12,176.05Z"/></g></g></svg>